# AST/ASF file generated using VICON BodyLanguage
# -----------------------------------------------
:version 1.10
:name VICON
:units
  mass 1.0
  length 0.45
  angle deg
:documentation
   .ast/.asf automatically generated from VICON data using
   VICON BodyBuilder and BodyLanguage model FoxedUp or BRILLIANT.MOD
:root
   order TX TY TZ RX RY RZ
   axis XYZ
   position 0 0 0  
   orientation 0 0 0 
:bonedata
  begin
     id 1 
     name lhipjoint
     direction 0.541323 -0.757556 0.364798 
     length 2.47576 
     axis 0 0 0  XYZ
  end
  begin
     id 2 
     name lfemur
     direction 0.34202 -0.939693 0  
     length 7.46493  
     axis 0 0 20  XYZ
    dof rx ry rz
    limits (-160.0 20.0)
           (-70.0 70.0)
           (-60.0 70.0)
  end
  begin
     id 3 
     name ltibia
     direction 0.34202 -0.939693 0   
     length 7.73805   
     axis 0 0 20   XYZ
    dof rx
    limits (-10.0 170.0)
  end
  begin
     id 4 
     name lfoot
     direction 0.107174 -0.294458 0.949636   
     length 2.25864   
     axis -90 7.62852e-016 20   XYZ
    dof rx rz
    limits (-45.0 90.0)
           (-70.0 20.0)
  end
  begin
     id 5 
     name ltoes
     direction 1.53606e-011 -4.21934e-011 1   
     length 1.12451   
     axis -90 7.62852e-016 20   XYZ
    dof rx
    limits (-90.0 20.0)
  end
  begin
     id 6 
     name rhipjoint
     direction -0.524745 -0.766967 0.36933   
     length 2.44538  
     axis 0 0 0  XYZ 
  end
  begin
     id 7 
     name rfemur
     direction -0.34202 -0.939693 0   
     length 7.61604   
     axis 0 0 -20   XYZ
    dof rx ry rz
    limits (-160.0 20.0)
           (-70.0 70.0)
           (-70.0 60.0)
  end
  begin
     id 8 
     name rtibia
     direction -0.34202 -0.939693 0   
     length 7.61056   
     axis 0 0 -20   XYZ
    dof rx
    limits (-10.0 170.0)
 end
 begin
     id 9 
     name rfoot
     direction -0.12616 -0.346623 0.929482   
     length 2.46372  
     axis -90 -7.62852e-016 -20   XYZ
    dof rx rz
    limits (-45.0 90.0)
           (-20.0 70.0)
  end
  begin
     id 10 
     name rtoes
     direction -1.53531e-011 -4.22004e-011 1   
     length 1.21611   
     axis -90 -7.62852e-016 -20   XYZ
    dof rx
    limits (-90.0 20.0)
  end
  begin
     id 11 
     name lowerback
     direction -0.000778023 0.997293 -0.0735223   
     length 2.06139   
     axis 0 0 0   XYZ
    dof rx ry rz
    limits (-20.0 45.0)
           (-30.0 30.0)
           (-30.0 30.0)
  end
  begin
     id 12 
     name upperback
     direction 0.0222598 0.999722 -0.0078355   
     length 2.06383   
     axis 0 0 0   XYZ
    dof rx ry rz
    limits (-20.0 45.0)
           (-30.0 30.0)
           (-30.0 30.0)
  end
  begin
     id 13 
     name thorax
     direction 0.0219654 0.999405 0.0265994   
     length 2.07163   
     axis 0 0 0   XYZ
    dof rx ry rz
    limits (-20.0 45.0)
           (-30.0 30.0)
           (-30.0 30.0)
  end
  begin
     id 14 
     name lowerneck
     direction 0.0213282 0.988147 0.15202   
     length 1.75969   
     axis 0 0 0   XYZ
    dof rx ry rz
    limits (-20.0 45.0)
           (-30.0 30.0)
           (-30.0 30.0)
  end
  begin
     id 15 
     name upperneck
     direction -0.0546456 0.982624 -0.177379   
     length 1.79244   
     axis 0 0 0   XYZ
    dof rx ry rz
    limits (-20.0 45.0)
           (-30.0 30.0)
           (-30.0 30.0)
  end
  begin
     id 16
     name head
     direction -0.0199987 0.996855 -0.076686  
     length 1.80555  
     axis 0 0 0   XYZ
    dof rx ry rz
    limits (-20.0 45.0)
           (-30.0 30.0)
           (-30.0 30.0)
  end
  begin
     id 17 
     name lclavicle
     direction 0.929565 0.363219 -0.063096  
     length 3.55722  
     axis 0 0 0   XYZ
    dof ry rz
    limits (-20.0 10.0)
           (0.0 20.0)
  end
  begin
     id 18 
     name lhumerus
     direction 1 -4.48993e-011 -2.36203e-027   
     length 4.92785   
     axis 180 -30 -90   XYZ
    dof rx ry rz
    limits (-60.0 90.0)
           (-90.0 90.0)
           (-90.0 90.0)
  end
  begin
     id 19
     name lradius
     direction 1 -4.48947e-011 2.02997e-027   
     length 3.44052   
     axis 180 -30 -90   XYZ
    dof rx
    limits (-10.0 170.0)
  end
  begin
     id 20
     name lwrist
     direction 1 -4.48962e-011 1.45991e-027   
     length 1.72026   
     axis 1.49639e-024 90 90   XYZ
    dof ry
    limits (-180.0 0.0)
 end
  begin
     id 21 
     name lhand
     direction 1 -4.48984e-011 2.91906e-027   
     length 0.654326   
     axis -1.863e-015 90 90   XYZ
    dof rx rz
    limits (-90.0 90.0)
           (-45.0 45.0)
  end
  begin
     id 22 
     name lfingers
     direction 1 -4.48961e-011 5.83968e-027   
     length 0.527534   
     axis -3.72598e-015 90 90   XYZ
    dof rx
    limits (0.0 90.0)
  end
  begin
     id 23
     name lthumb
     direction 0.707107 -6.34963e-011 0.707107   
     length 0.757437   
     axis -90 45 -6.68868e-015   XYZ
    dof rx rz
    limits (-45.0 45.0)
           (-45.0 45.0)
  end
  begin
     id 24 
     name rclavicle
     direction -0.902944 0.422599 -0.0781198   
     length 3.54432  
     axis 0 0 0   XYZ 
    dof ry rz
    limits (-10.0 20.0)
           (-20.0 0.0)
  end
  begin
     id 25 
     name rhumerus
     direction -1 -4.48953e-011 -4.75835e-028  
     length 5.09181   
     axis 180 30 90   XYZ
    dof rx ry rz
    limits (-90.0 60.0)
           (-90.0 90.0)
           (-90.0 90.0)
  end
  begin
     id 26 
     name rradius
     direction -1 -4.48986e-011 -3.25889e-027   
     length 3.49865   
     axis 180 30 90   XYZ
    dof rx
    limits (-10.0 170.0)
  end
  begin
     id 27 
     name rwrist
     direction -1 -4.48963e-011 1.45989e-027   
     length 1.74933   
     axis 1.49639e-024 -90 -90   XYZ
    dof ry
    limits (-180.0 0.0)
  end
  begin
     id 28
     name rhand
     direction -1 -4.49003e-011 2.91844e-027   
     length 0.66641   
     axis -1.863e-015 -90 -90   XYZ
    dof rx rz
    limits (-90.0 90.0)
           (-45.0 45.0)
  end
  begin
     id 29
     name rfingers
     direction -1 -4.48973e-011 5.83886e-027   
     length 0.537277   
     axis -3.72598e-015 -90 -90   XYZ
    dof rx
    limits (0.0 90.0)
  end
  begin
     id 30
     name rthumb
     direction -0.707107 -6.34976e-011 0.707107   
     length 0.771425   
     axis -90 -45 6.68868e-015   XYZ
    dof rx rz
    limits (-45.0 45.0)
           (-45.0 45.0)
  end
:hierarchy
  begin
    root lhipjoint rhipjoint lowerback
    lhipjoint lfemur
    lfemur ltibia
    ltibia lfoot
    lfoot ltoes
    rhipjoint rfemur
    rfemur rtibia
    rtibia rfoot
    rfoot rtoes
    lowerback upperback
    upperback thorax
    thorax lowerneck lclavicle rclavicle
    lowerneck upperneck
    upperneck head
    lclavicle lhumerus
    lhumerus lradius
    lradius lwrist
    lwrist lhand lthumb
    lhand lfingers
    rclavicle rhumerus
    rhumerus rradius
    rradius rwrist
    rwrist rhand rthumb
    rhand rfingers
  end

#!OML:ASF H:\LiuWeirdWalks\Patient Classification 1\Patient 1\Session 1\male.ASF
:FULLY-SPECIFIED
:DEGREES
277
root 0.397882 17.9512 -26.8202 2.44338 5.58847 1.16764
lowerback 2.78532 -0.81276 -2.22059
upperback -0.366108 -1.0999 3.19912
thorax -1.83451 -0.510506 4.59674
lowerneck -12.291 -1.35639 2.97949
upperneck 18.5448 -0.816769 -8.29597
head 7.67873 -0.970816 -3.32237
rclavicle -1.16786e-014 -1.98785e-014
rhumerus -38.3044 -24.265 -30.0991
rradius 35.16
rwrist -8.48155
rhand -19.3048 -3.21334
rfingers 7.12502
rthumb 7.01092 -33.0772
lclavicle -1.16786e-014 -1.98785e-014
lhumerus -27.1663 17.4133 39.5449
lradius 34.5267
lwrist 6.99806
lhand -12.9549 3.57393
lfingers 7.12502
lthumb 13.1366 33.1401
rfemur -5.38255 -2.62732 11.8809
rtibia 26.3545
rfoot -11.4647 -28.4241
rtoes -2.89479
lfemur -5.32592 -2.74631 -16.4575
ltibia 21.8099
lfoot -8.55758 17.6218
ltoes -8.52761
278
root 0.391899 17.9502 -26.8176 2.43872 5.67718 1.18443
lowerback 2.84158 -0.817277 -2.21068
upperback -0.35243 -1.1058 3.21823
thorax -1.85129 -0.513337 4.61226
lowerneck -12.1761 -1.32851 2.98349
upperneck 18.3634 -0.791222 -8.28005
head 7.60016 -0.952361 -3.30854
rclavicle -1.86361e-014 2.78299e-014
rhumerus -38.1474 -24.2611 -29.5003
rradius 35.2954
rwrist -8.56578
rhand -19.3978 -3.25239
rfingers 7.12502
rthumb 6.92119 -33.1193
lclavicle -1.86361e-014 2.78299e-014
lhumerus -27.0356 17.5848 38.974
lradius 34.6434
lwrist 7.24589
lhand -13.0019 3.66784
lfingers 7.12502
lthumb 13.0913 33.237
rfemur -5.35185 -2.63909 11.8937
rtibia 26.37
rfoot -11.4833 -28.484
rtoes -2.86198
lfemur -5.34688 -2.77321 -16.4493
ltibia 21.8389
lfoot -8.56544 17.5772
ltoes -8.51538
279
root 0.385133 17.9492 -26.8146 2.43084 5.7961 1.19921
lowerback 2.88566 -0.831594 -2.19642
upperback -0.338562 -1.12464 3.23127
thorax -1.85996 -0.522885 4.61926
lowerneck -12.1599 -1.33742 2.96838
upperneck 18.3298 -0.804946 -8.26554
head 7.58561 -0.957801 -3.30132
rclavicle -3.19546e-014 1.19271e-014
rhumerus -38.0017 -24.2428 -28.9321
rradius 35.4345
rwrist -8.67759
rhand -19.4887 -3.29107
rfingers 7.12502
rthumb 6.83338 -33.1608
lclavicle -3.19546e-014 1.19271e-014
lhumerus -26.9055 17.7276 38.4208
lradius 34.7656
lwrist 7.53857
lhand -13.05 3.77767
lfingers 7.12502
lthumb 13.045 33.3498
rfemur -5.30969 -2.65225 11.9171
rtibia 26.3898
rfoot -11.5228 -28.5794
rtoes -2.82286
lfemur -5.36437 -2.79213 -16.4301
ltibia 21.8595
lfoot -8.57129 17.4952
ltoes -8.51849
280
root 0.378026 17.9481 -26.8113 2.42724 5.94805 1.23442
lowerback 2.91202 -0.859181 -2.20728
upperback -0.318165 -1.16217 3.23993
thorax -1.84977 -0.542031 4.63627
lowerneck -12.1329 -1.3486 2.95276
upperneck 18.2821 -0.821931 -8.25351
head 7.56427 -0.964694 -3.2946
rclavicle 1.48095e-014 8.74653e-015
rhumerus -37.8422 -24.2394 -28.3813
rradius 35.5569
rwrist -8.76581
rhand -19.5422 -3.29926
rfingers 7.12502
rthumb 6.78176 -33.1706
lclavicle 1.48095e-014 8.74653e-015
lhumerus -26.7712 17.8783 37.8914
lradius 34.8787
lwrist 7.8712
lhand -13.1207 3.8896
lfingers 7.12502
lthumb 12.9768 33.466
rfemur -5.2611 -2.6861 11.9212
rtibia 26.4156
rfoot -11.5953 -28.6879
rtoes -2.75671
lfemur -5.38462 -2.80748 -16.4274
ltibia 21.8723
lfoot -8.57414 17.3793
ltoes -8.54003
281
root 0.370628 17.947 -26.8083 2.42825 6.11455 1.27604
lowerback 2.93489 -0.894632 -2.22549
upperback -0.297118 -1.21053 3.24481
thorax -1.83579 -0.566639 4.65388
lowerneck -12.1051 -1.35826 2.94133
upperneck 18.225 -0.838594 -8.23956
head 7.53971 -0.970842 -3.28767
rclavicle 2.16178e-014 -5.56597e-015
rhumerus -37.6638 -24.235 -27.8641
rradius 35.6651
rwrist -8.87931
rhand -19.5953 -3.29382
rfingers 7.12502
rthumb 6.73049 -33.1668
lclavicle 2.16178e-014 -5.56597e-015
lhumerus -26.6427 18.0151 37.3815
lradius 34.99
lwrist 8.26918
lhand -13.2111 3.98496
lfingers 7.12502
lthumb 12.8897 33.5669
rfemur -5.21724 -2.7261 11.9208
rtibia 26.4486
rfoot -11.6854 -28.809
rtoes -2.67852
lfemur -5.4107 -2.82314 -16.4289
ltibia 21.8808
lfoot -8.57338 17.2498
ltoes -8.56741
282
root 0.363214 17.9457 -26.8054 2.43031 6.2899 1.32353
lowerback 2.95653 -0.937382 -2.24737
upperback -0.275798 -1.26883 3.24671
thorax -1.81983 -0.596255 4.67085
lowerneck -12.079 -1.36728 2.92663
upperneck 18.1784 -0.853525 -8.22362
head 7.51905 -0.976376 -3.27966
rclavicle 9.98893e-015 -2.62396e-014
rhumerus -37.4595 -24.2468 -27.3749
rradius 35.7532
rwrist -9.02264
rhand -19.6487 -3.30049
rfingers 7.12502
rthumb 6.67893 -33.1752
lclavicle 9.98893e-015 -2.62396e-014
lhumerus -26.5271 18.1414 36.8906
lradius 35.0961
lwrist 8.71443
lhand -13.3452 4.0701
lfingers 7.12502
lthumb 12.7604 33.6602
rfemur -5.17616 -2.77585 11.9137
rtibia 26.4909
rfoot -11.783 -28.9282
rtoes -2.59218
lfemur -5.43655 -2.83855 -16.4363
ltibia 21.8856
lfoot -8.57121 17.1126
ltoes -8.59799
283
root 0.356906 17.9442 -26.8027 2.43423 6.4403 1.38245
lowerback 2.98487 -0.972699 -2.26338
upperback -0.257429 -1.31725 3.23557
thorax -1.812 -0.620835 4.67067
lowerneck -12.039 -1.37328 2.91759
upperneck 18.1208 -0.867313 -8.20054
head 7.49239 -0.979924 -3.26961
rclavicle -2.15184e-014 3.10104e-014
rhumerus -37.2467 -24.2583 -26.9106
rradius 35.822
rwrist -9.20424
rhand -19.7189 -3.31527
rfingers 7.12502
rthumb 6.61122 -33.1921
lclavicle -2.15184e-014 3.10104e-014
lhumerus -26.4111 18.2604 36.4149
lradius 35.1854
lwrist 9.19753
lhand -13.5221 4.12388
lfingers 7.12502
lthumb 12.5899 33.7245
rfemur -5.14816 -2.84296 11.8816
rtibia 26.541
rfoot -11.8667 -29.0077
rtoes -2.5178
lfemur -5.4577 -2.85771 -16.4665
ltibia 21.8899
lfoot -8.56786 17.0034
ltoes -8.61561
284
root 0.351225 17.9425 -26.7999 2.4343 6.57447 1.45053
lowerback 3.01815 -1.00524 -2.28274
upperback -0.238213 -1.36225 3.21841
thorax -1.80647 -0.643668 4.66611
lowerneck -12.0115 -1.37849 2.90883
upperneck 18.0837 -0.879237 -8.17632
head 7.47481 -0.982955 -3.2598
rclavicle -1.22253e-014 -1.43125e-014
rhumerus -37.0105 -24.3091 -26.4584
rradius 35.8472
rwrist -9.30701
rhand -19.7778 -3.32553
rfingers 7.12502
rthumb 6.55435 -33.2041
lclavicle -1.22253e-014 -1.43125e-014
lhumerus -26.3052 18.372 35.9585
lradius 35.2664
lwrist 9.67411
lhand -13.7414 4.18296
lfingers 7.12502
lthumb 12.3784 33.7965
rfemur -5.12218 -2.92119 11.8315
rtibia 26.597
rfoot -11.9478 -29.0607
rtoes -2.4508
lfemur -5.46961 -2.87699 -16.5129
ltibia 21.8949
lfoot -8.5686 16.9101
ltoes -8.62643
285
root 0.345837 17.9407 -26.7969 2.43227 6.69905 1.51958
lowerback 3.0557 -1.03609 -2.3021
upperback -0.22113 -1.40508 3.19834
thorax -1.80581 -0.66529 4.65857
lowerneck -11.9887 -1.38293 2.90009
upperneck 18.0671 -0.889607 -8.14874
head 7.46492 -0.985284 -3.24935
rclavicle -1.26725e-014 1.59028e-014
rhumerus -36.7566 -24.3943 -26.0153
rradius 35.8336
rwrist -9.36116
rhand -19.837 -3.32399
rfingers 7.12502
rthumb 6.49715 -33.2043
lclavicle -1.26725e-014 1.59028e-014
lhumerus -26.2196 18.4669 35.5192
lradius 35.3493
lwrist 10.1169
lhand -13.9891 4.23587
lfingers 7.12502
lthumb 12.1396 33.8637
rfemur -5.09818 -3.00536 11.7762
rtibia 26.6554
rfoot -12.0231 -29.1005
rtoes -2.39098
lfemur -5.47819 -2.89563 -16.5633
ltibia 21.9036
lfoot -8.57278 16.8244
ltoes -8.63209
286
root 0.340402 17.9388 -26.7938 2.43119 6.81751 1.58185
lowerback 3.09758 -1.06624 -2.32464
upperback -0.20733 -1.447 3.1833
thorax -1.81084 -0.686246 4.65827
lowerneck -11.9925 -1.39105 2.88861
upperneck 18.0755 -0.902027 -8.12817
head 7.46779 -0.990234 -3.24204
rclavicle 8.34896e-015 -1.82882e-014
rhumerus -36.4838 -24.5092 -25.5689
rradius 35.774
rwrist -9.31232
rhand -19.8544 -3.27498
rfingers 7.12502
rthumb 6.4804 -33.1558
lclavicle 8.34896e-015 -1.82882e-014
lhumerus -26.1434 18.5755 35.1024
lradius 35.4168
lwrist 10.47
lhand -14.24 4.2783
lfingers 7.12502
lthumb 11.8976 33.9202
rfemur -5.0792 -3.08649 11.7283
rtibia 26.7156
rfoot -12.101 -29.1371
rtoes -2.32618
lfemur -5.48859 -2.90939 -16.6058
ltibia 21.9145
lfoot -8.58292 16.7392
ltoes -8.63311
287
root 0.334452 17.9371 -26.7909 2.43052 6.93483 1.61978
lowerback 3.14246 -1.09799 -2.33696
upperback -0.191252 -1.49056 3.17767
thorax -1.81506 -0.708123 4.66212
lowerneck -12.0128 -1.40058 2.87853
upperneck 18.0859 -0.916862 -8.10707
head 7.47418 -0.99653 -3.23534
rclavicle -2.5842e-015 -5.56597e-015
rhumerus -36.1863 -24.6466 -25.1402
rradius 35.6892
rwrist -9.22685
rhand -19.8585 -3.21074
rfingers 7.12502
rthumb 6.47645 -33.0917
lclavicle -2.5842e-015 -5.56597e-015
lhumerus -26.0727 18.6913 34.7078
lradius 35.4812
lwrist 10.7384
lhand -14.4772 4.3302
lfingers 7.12502
lthumb 11.669 33.9852
rfemur -5.0656 -3.1469 11.7135
rtibia 26.7758
rfoot -12.1813 -29.1975
rtoes -2.26275
lfemur -5.50573 -2.91401 -16.617
ltibia 21.9284
lfoot -8.59575 16.6441
ltoes -8.64261
288
root 0.328179 17.9355 -26.788 2.43752 7.05742 1.66262
lowerback 3.17991 -1.13431 -2.37057
upperback -0.171195 -1.54092 3.17863
thorax -1.8096 -0.733452 4.68499
lowerneck -12.0517 -1.40971 2.87106
upperneck 18.0869 -0.929623 -8.1003
head 7.48084 -1.00322 -3.23372
rclavicle 1.89342e-014 -3.33958e-014
rhumerus -35.8643 -24.7811 -24.725
rradius 35.5944
rwrist -9.12526
rhand -19.8259 -3.13995
rfingers 7.12502
rthumb 6.50788 -33.02
lclavicle 1.89342e-014 -3.33958e-014
lhumerus -26.0049 18.8268 34.3432
lradius 35.5354
lwrist 10.9105
lhand -14.6943 4.3935
lfingers 7.12502
lthumb 11.4596 34.0603
rfemur -5.05867 -3.20333 11.6964
rtibia 26.8364
rfoot -12.2664 -29.2646
rtoes -2.19423
lfemur -5.53403 -2.90962 -16.6299
ltibia 21.9446
lfoot -8.60806 16.5357
ltoes -8.66331
